#tb 0: 1/25
#media_type 0: video
#codec_id 0: rawvideo
#dimensions 0: 352x288
#sar 0: 0/1
0,          0,          0,        1,   102400, 0x8a03a4f2
0,          1,          1,        1,   102400, 0x9f269a8b
0,          2,          2,        1,   102400, 0x04ee0c90
0,          3,          3,        1,   102400, 0x4ca5336a
0,          4,          4,        1,   102400, 0x6b760d10
